<svg width="5" height="29" viewBox="0 0 5 29" fill="none" xmlns="http://www.w3.org/2000/svg">
<path d="M0.694532 14.2V-1.90735e-06H4.29453V14.2L3.69453 19.8H1.29453L0.694532 14.2ZM0.774531 27.92C0.321198 27.4667 0.0945315 26.8933 0.0945315 26.2C0.0945315 25.5067 0.321198 24.9333 0.774531 24.48C1.22786 24.0267 1.8012 23.8 2.49453 23.8C3.18786 23.8 3.7612 24.0267 4.21453 24.48C4.66786 24.9333 4.89453 25.5067 4.89453 26.2C4.89453 26.8933 4.66786 27.4667 4.21453 27.92C3.7612 28.3733 3.18786 28.6 2.49453 28.6C1.8012 28.6 1.22786 28.3733 0.774531 27.92Z" fill="#F74737"/>
</svg>
