<svg width="46" height="47" viewBox="0 0 46 47" fill="none" xmlns="http://www.w3.org/2000/svg">
<path d="M41.7035 6.78345C41.7035 6.78345 41.6915 6.78673 41.6803 6.79356C41.6259 6.84064 41.5826 6.8809 41.5394 6.92115C41.5394 6.92115 41.5285 6.92339 41.5178 6.93008C41.451 6.98842 41.395 7.04007 41.339 7.09172C41.3302 7.09659 41.3213 7.10147 41.3007 7.11518C41.2556 7.15665 41.2223 7.1893 41.1891 7.22194C41.1673 7.23789 41.1455 7.25384 41.1116 7.27882C41.0674 7.31898 41.0351 7.35011 41.0029 7.38125C41.0029 7.38125 41.0004 7.38162 40.9931 7.38364C40.977 7.39592 40.9682 7.40617 40.9594 7.41643C40.9594 7.41643 40.9527 7.41581 40.9443 7.42038C40.9135 7.44743 40.891 7.46991 40.8686 7.49239C40.8686 7.49239 40.866 7.49267 40.8591 7.49475C40.8433 7.50118 40.8387 7.50835 40.8385 7.51834C40.8385 7.51834 40.8376 7.51915 40.8302 7.5208C40.8145 7.53327 40.8061 7.54408 40.7978 7.55489C40.7888 7.56015 40.7798 7.56541 40.7587 7.57997C40.69 7.64136 40.6334 7.69344 40.5767 7.74553C40.5767 7.74553 40.5737 7.74529 40.565 7.74879C40.509 7.79592 40.4617 7.83955 40.4143 7.88317C40.4143 7.88317 40.4117 7.88281 40.4049 7.88488C40.3891 7.89152 40.3845 7.89883 40.3845 7.90888C40.3845 7.90888 40.3834 7.90893 40.3746 7.91158C40.3181 7.95784 40.2703 8.00145 40.2226 8.04507C40.2226 8.04507 40.2203 8.04489 40.2114 8.04832C40.09 8.14722 39.9743 8.23943 39.8677 8.34864C39.9092 8.4025 39.9384 8.44253 39.9698 8.48074C40.3467 8.93958 40.7342 9.39015 41.0991 9.85841C41.9107 10.9 42.6592 11.985 43.3123 13.1347C43.6889 13.7978 44.0325 14.4771 44.3362 15.1755C44.8765 16.4179 45.2875 17.7026 45.5617 19.0304C45.7416 19.9018 45.871 20.78 45.9359 21.6679C46.0098 22.6777 46.018 23.688 45.9698 24.6991C45.9677 24.7439 45.9725 24.7889 45.974 24.8339C45.9709 24.8477 45.9678 24.8615 45.9625 24.8951C45.9092 25.552 45.8472 26.1877 45.7475 26.8195C45.5244 28.2341 45.1641 29.6131 44.6644 30.9544C44.3288 31.8553 43.9358 32.7316 43.4742 33.576C43.4179 33.679 43.3669 33.7848 43.3135 33.8893C43.3135 33.8893 43.3128 33.8903 43.3053 33.8957C43.2622 33.9712 43.2265 34.0412 43.1909 34.1113C43.1872 34.1142 43.1835 34.1172 43.1708 34.1316C43.0524 34.3268 42.943 34.5104 42.8289 34.6954C42.8187 34.7022 42.8183 34.7081 42.8211 34.7194C42.8191 34.7246 42.8115 34.7326 42.8054 34.7336C42.7967 34.7455 42.7942 34.7565 42.7899 34.7717C42.7881 34.776 42.7817 34.7826 42.7767 34.7836C42.7657 34.7898 42.7649 34.7959 42.7653 34.81C42.7576 34.8217 42.754 34.826 42.7458 34.8312C42.7353 34.8371 42.7348 34.8426 42.7372 34.8537C42.7347 34.8588 42.7265 34.8668 42.7204 34.8677C42.7112 34.8794 42.7083 34.8903 42.7037 34.9052C42.7022 34.9091 42.6963 34.9153 42.6913 34.9164C42.68 34.9229 42.6794 34.9289 42.6804 34.9429C42.6728 34.9545 42.6693 34.9588 42.6558 34.9647C42.5446 34.989 42.5404 34.9896 42.5286 34.9032C42.4998 34.6927 42.4691 34.4821 42.4501 34.2706C42.4101 33.8246 42.3772 33.378 42.3413 32.9316C42.2959 32.368 42.2509 31.8044 42.205 31.2409C42.1687 30.7947 42.1318 30.3485 42.0939 29.9024C42.0764 29.6951 42.0575 29.4878 42.0355 29.2809C42.0321 29.2487 42.0091 29.2186 41.9934 29.1791C41.9916 29.1591 41.9914 29.1476 41.9976 29.1281C42.0108 29.0485 42.0367 28.974 41.969 28.904C41.9656 28.8657 41.9642 28.8377 41.9679 28.8029C41.9835 28.7502 41.961 28.721 41.9188 28.7304C41.8742 28.7403 41.8337 28.7685 41.7854 28.7927C41.7746 28.7979 41.7699 28.799 41.7576 28.7975C41.7166 28.8097 41.6831 28.8247 41.6448 28.8426C41.6401 28.8455 41.6292 28.8479 41.6226 28.8449C41.6009 28.8511 41.5858 28.8603 41.5654 28.8729C41.5601 28.8763 41.5478 28.879 41.5389 28.876C41.4441 28.9076 41.3582 28.9423 41.2667 28.9808C41.2611 28.9846 41.248 28.988 41.2431 28.9847C41.2282 28.9865 41.2182 28.9917 41.2048 28.999C41.2015 29.0011 41.1943 29.0041 41.1857 29.0028C41.1425 29.0188 41.108 29.036 41.0697 29.0556C41.066 29.058 41.0573 29.0595 41.0491 29.0568C41.0174 29.066 40.9938 29.0778 40.9616 29.0943C40.9468 29.1008 40.9405 29.1025 40.9268 29.1008C40.8976 29.1102 40.8758 29.1229 40.8461 29.1397C40.8327 29.1454 40.8271 29.147 40.8128 29.1456C40.7681 29.1597 40.7321 29.1768 40.6921 29.1965C40.6882 29.1991 40.6788 29.2005 40.6717 29.1975C40.6488 29.204 40.6329 29.2136 40.614 29.2257C40.611 29.2282 40.6034 29.2301 40.5935 29.2277C40.5488 29.2353 40.5134 29.243 40.4796 29.2554C40.2116 29.3539 39.9444 29.4545 39.6757 29.5513C39.6191 29.5717 39.5578 29.5789 39.4742 29.5976C39.4883 29.5248 39.4924 29.4764 39.5077 29.4318C39.5311 29.3633 39.5665 29.2989 39.5895 29.2304C39.7396 28.7836 39.8947 28.3383 40.0347 27.8883C40.2139 27.3121 40.3445 26.7235 40.4371 26.1273C40.4836 25.8277 40.5137 25.5257 40.556 25.2254C40.6097 24.8438 40.6472 24.4607 40.6488 24.0755C40.6517 23.3461 40.6692 22.6163 40.5745 21.8897C40.526 21.5171 40.5107 21.1395 40.4499 20.7693C40.3743 20.3093 40.2892 19.8486 40.1677 19.3992C40.0355 18.9101 39.8729 18.4275 39.6947 17.9529C39.4268 17.2394 39.0948 16.5537 38.7213 15.8888C38.7027 15.8557 38.6688 15.8313 38.6386 15.7989C38.6353 15.7951 38.6313 15.7857 38.6331 15.777C38.6207 15.7516 38.6065 15.7349 38.5872 15.7118C38.5717 15.6862 38.5613 15.667 38.5516 15.6405C38.5456 15.6264 38.539 15.6197 38.5288 15.609C38.5252 15.605 38.5205 15.5955 38.5225 15.587C38.5109 15.5617 38.4971 15.5451 38.4783 15.522C38.463 15.4963 38.4527 15.477 38.4442 15.4482C38.4215 15.4053 38.3973 15.3719 38.3678 15.3322C38.3516 15.307 38.3406 15.2882 38.3318 15.2606C38.3195 15.2355 38.3051 15.2191 38.2871 15.1989C38.2836 15.195 38.2791 15.1856 38.2809 15.1761C38.2577 15.1335 38.2329 15.1004 38.2044 15.0635C38.2009 15.0598 38.1963 15.0505 38.1982 15.0418C38.1854 15.0168 38.1708 15.0005 38.1527 14.9802C38.1492 14.9763 38.1449 14.9668 38.1461 14.9572C38.1222 14.9151 38.0971 14.8824 38.0683 14.846C38.0646 14.8422 38.0597 14.8328 38.0613 14.8241C38.0481 14.7994 38.0332 14.7834 38.0148 14.7637C38.0112 14.7601 38.0066 14.751 38.008 14.7422C37.9944 14.7174 37.9794 14.7015 37.9607 14.6819C37.957 14.6782 37.9521 14.6691 37.9537 14.6604C37.9405 14.6356 37.9258 14.6196 37.9073 14.5997C37.9037 14.5959 37.899 14.5865 37.9004 14.5769C37.8769 14.5345 37.8519 14.5016 37.8232 14.465C37.8196 14.4614 37.8149 14.4524 37.8167 14.4436C37.8036 14.4189 37.7887 14.4031 37.7729 14.3871C37.7721 14.387 37.7725 14.3854 37.7734 14.3764C37.7559 14.3468 37.7375 14.3262 37.7183 14.3055C37.7176 14.3055 37.718 14.3041 37.7188 14.2951C37.7008 14.2656 37.6819 14.2452 37.6571 14.219C37.6368 14.1897 37.6222 14.1663 37.6087 14.1338C37.5909 14.104 37.5723 14.0834 37.5535 14.0625C37.5533 14.0621 37.5528 14.0615 37.5528 14.0545C37.5456 14.0423 37.5385 14.037 37.5276 14.0277C37.5239 14.0238 37.5188 14.014 37.52 14.0053C37.506 13.9812 37.4908 13.9657 37.472 13.9467C37.4682 13.9431 37.4632 13.9341 37.4644 13.9253C37.4503 13.9014 37.4349 13.8862 37.4186 13.8708C37.4177 13.8706 37.418 13.8688 37.4191 13.8597C37.4013 13.8302 37.3825 13.8097 37.3598 13.7855C37.356 13.7818 37.3507 13.7725 37.3526 13.7628C37.3299 13.6876 37.3075 13.6204 37.2284 13.5983C37.2277 13.5982 37.228 13.5967 37.2291 13.5877C37.2114 13.5584 37.1927 13.5382 37.173 13.5177C37.172 13.5175 37.1724 13.5155 37.1735 13.5062C37.1479 13.4668 37.1213 13.4367 37.0907 13.4029C37.0869 13.3991 37.0816 13.3898 37.0828 13.3811C37.0687 13.3572 37.0532 13.342 37.0323 13.3217C37.0183 13.3044 37.0098 13.2921 37.0024 13.2712C36.9882 13.2472 36.973 13.2319 36.9538 13.2128C36.9499 13.2091 36.9445 13.1997 36.9458 13.191C36.9316 13.1674 36.9162 13.1525 36.8952 13.1323C36.8817 13.1143 36.8736 13.1014 36.8665 13.0799C36.8521 13.0563 36.8367 13.0413 36.8174 13.0222C36.8134 13.018 36.8079 13.0078 36.8084 13.001C36.8027 12.988 36.7966 12.9818 36.7842 12.9688C36.7262 12.8944 36.6743 12.8268 36.6144 12.7489C36.5593 12.7955 36.5093 12.8324 36.4654 12.8756C36.0179 13.3163 35.5708 13.7574 35.1249 14.1998C34.965 14.3584 34.8087 14.5208 34.6507 14.6814C34.6044 14.7239 34.558 14.7664 34.4967 14.8165C34.3993 14.81 34.4145 14.7356 34.4028 14.6848C34.1474 13.572 33.8936 12.4588 33.6416 11.3453C33.3766 10.1742 33.1143 9.0025 32.8499 7.83129C32.7551 7.41145 32.6569 6.99237 32.5616 6.57264C32.5271 6.42108 32.5495 6.39481 32.7021 6.3946C32.9513 6.39426 33.2005 6.39331 33.4497 6.39322C35.8284 6.39244 38.2071 6.39159 40.5858 6.39125C41.0252 6.39118 41.4647 6.39248 41.9042 6.39543C41.9542 6.39577 42.015 6.37435 42.0556 6.44669C42.0143 6.49496 41.9715 6.54484 41.9288 6.59473C41.9139 6.60353 41.899 6.61233 41.872 6.63048C41.8077 6.6877 41.7556 6.73557 41.7035 6.78345Z" fill="#01172E"/>
<path d="M29.3149 1.46061C30.9392 1.976 32.4786 2.65439 33.929 3.53085C33.9539 3.54588 33.9711 3.57361 34.0172 3.6219C32.3587 3.62362 30.732 3.62103 29.0879 3.62393C29.097 3.69969 29.0994 3.7619 29.1126 3.82171C29.2367 4.38386 29.3622 4.94573 29.4883 5.50744C29.6224 6.10448 29.7581 6.70116 29.8914 7.29836C29.9037 7.35309 29.904 7.41048 29.9114 7.48084C29.8667 7.46729 29.8404 7.46256 29.8169 7.45175C28.1556 6.6866 26.4167 6.19936 24.5968 6.01492C23.6482 5.91878 22.6964 5.91523 21.7442 5.97337C20.4381 6.05311 19.1643 6.29852 17.9234 6.71205C17.2257 6.94456 16.5534 7.23806 15.8953 7.56698C14.929 8.04999 14.0085 8.61235 13.0847 9.1694C13.058 9.18551 13.0339 9.20594 12.9955 9.23386C13.034 9.26795 13.0648 9.29897 13.0993 9.32524C13.7915 9.85276 14.4842 10.3796 15.1765 10.9071C15.2106 10.9332 15.2413 10.9638 15.2988 11.0144C12.4352 11.5782 9.60448 12.1358 6.77361 12.6924C6.68181 12.7104 6.58825 12.7195 6.47684 12.7355C6.47387 12.6684 6.46823 12.6207 6.47017 12.5734C6.5081 11.6446 6.54651 10.7158 6.58564 9.78712C6.64368 8.4099 6.70222 7.03269 6.76083 5.6555C6.78049 5.19342 6.80061 4.73136 6.8216 4.26934C6.82399 4.21655 6.83331 4.16407 6.83911 4.11407C6.91193 4.09236 6.94261 4.14047 6.97813 4.17033C7.35289 4.48537 7.72634 4.80195 8.10051 5.1177C8.31184 5.29604 8.5229 5.47473 8.73586 5.65112C8.86074 5.75457 8.86253 5.75252 8.9884 5.65384C9.96709 4.88658 10.9869 4.17888 12.0537 3.53954C13.0744 2.92785 14.1356 2.39661 15.239 1.95134C16.4578 1.45947 17.7169 1.10318 19.007 0.856616C20.5862 0.554829 22.1816 0.461777 23.7855 0.513526C24.897 0.54939 25.9998 0.676081 27.0911 0.897395C27.8381 1.04887 28.5782 1.22524 29.3149 1.46061Z" fill="#01172E"/>
<path d="M3.70836 12.3691C3.70591 12.3816 3.70346 12.3941 3.69587 12.4219C3.68779 12.5975 3.68485 12.7579 3.67882 12.927C3.67892 12.9471 3.68211 12.9585 3.68529 12.9699C3.67853 13.0549 3.67177 13.1399 3.66138 13.245C3.65841 13.3391 3.65908 13.4131 3.65672 13.4993C3.64915 13.651 3.6446 13.7905 3.63505 13.938C3.63107 14.0099 3.63208 14.0737 3.63006 14.1498C3.62239 14.3019 3.61778 14.4417 3.60822 14.5861C3.60536 14.6122 3.60743 14.6337 3.60635 14.6678C3.59879 14.8321 3.59439 14.9838 3.58392 15.1425C3.57786 15.2114 3.57787 15.2732 3.5744 15.3476C3.56865 15.4942 3.56639 15.6284 3.55781 15.7703C3.54634 15.8618 3.53973 15.9455 3.53685 16.0293C3.53587 16.0576 3.53001 16.0956 3.59024 16.0973C3.63287 16.0964 3.66468 16.0947 3.69563 16.0886C4.29134 15.9716 4.88693 15.8539 5.48259 15.7367C6.13165 15.6088 6.78065 15.4808 7.42999 15.3544C7.4883 15.343 7.54887 15.3432 7.63118 15.3361C7.60193 15.3976 7.58742 15.4345 7.56776 15.4684C7.22197 16.0651 6.91144 16.6797 6.6458 17.3161C6.53077 17.5917 6.43091 17.8737 6.32107 18.1525C6.31798 18.1522 6.32173 18.1609 6.31462 18.1755C6.30509 18.2006 6.30268 18.2112 6.29676 18.2217C6.28792 18.2289 6.28849 18.2347 6.28733 18.2532C6.2765 18.2773 6.2733 18.2874 6.27041 18.2962C6.27072 18.2949 6.27082 18.2941 6.26554 18.3078C6.25474 18.3404 6.24921 18.3592 6.24305 18.3768C6.24242 18.3756 6.24379 18.3766 6.23787 18.3907C6.22698 18.4246 6.22202 18.4444 6.21173 18.4683C6.19867 18.5041 6.19095 18.5357 6.1765 18.5817C6.16782 18.6065 6.16588 18.6169 6.16023 18.6277C6.15105 18.6356 6.15169 18.6419 6.15133 18.6605C6.14197 18.6843 6.13973 18.6944 6.13602 18.7023C6.13455 18.7001 6.13136 18.706 6.13136 18.706C6.13136 18.706 6.13702 18.7064 6.13185 18.7167C6.12124 18.7495 6.11581 18.7718 6.107 18.7934C6.10362 18.7926 6.10027 18.8022 6.10027 18.8022C6.10027 18.8022 6.10654 18.8088 6.10009 18.8225C6.0894 18.8558 6.08517 18.8754 6.07685 18.8962C6.06693 18.906 6.06751 18.9134 6.06778 18.9349C6.05906 18.9612 6.05704 18.9721 6.05018 18.9869C6.03889 19.0234 6.03245 19.0561 6.02047 19.0991C6.00984 19.1324 6.00474 19.1552 5.99481 19.1812C5.98381 19.2158 5.97763 19.2473 5.96588 19.2892C5.95522 19.3229 5.95014 19.346 5.94015 19.3721C5.92921 19.4066 5.92318 19.4382 5.91274 19.478C5.90705 19.4985 5.90578 19.5107 5.89916 19.5249C5.89252 19.5441 5.89122 19.5613 5.8855 19.5866C5.87963 19.6067 5.87819 19.6187 5.87148 19.633C5.86474 19.653 5.86325 19.6706 5.85767 19.6962C5.85249 19.716 5.8514 19.7278 5.8449 19.7417C5.83818 19.7616 5.83685 19.7793 5.83116 19.8049C5.82567 19.8248 5.82454 19.8367 5.81708 19.8542C5.80012 19.9207 5.7895 19.9814 5.77464 20.0498C5.7695 20.0689 5.76858 20.0803 5.76113 20.0975C5.74486 20.1647 5.73513 20.2262 5.72145 20.2956C5.71689 20.3152 5.71628 20.3268 5.70931 20.3429C5.70033 20.3822 5.69771 20.4171 5.69121 20.4591C5.68715 20.4769 5.68696 20.4875 5.68088 20.5023C5.67341 20.5337 5.67183 20.561 5.66638 20.5959C5.66234 20.6148 5.66217 20.626 5.65511 20.6438C5.51494 21.2914 5.44143 21.9399 5.41136 22.5936C5.41037 22.6151 5.41898 22.6371 5.41994 22.6702C5.41586 22.7423 5.41494 22.8031 5.40806 22.8724C5.40055 23.2934 5.39881 23.7058 5.39821 24.1182C5.39819 24.1349 5.40892 24.1516 5.4123 24.1798C5.41477 24.2709 5.41959 24.3505 5.41958 24.4394C5.42473 24.5534 5.43471 24.6581 5.44236 24.7704C5.44287 24.7882 5.44572 24.7982 5.44358 24.818C5.45966 25.0628 5.48036 25.2978 5.50265 25.5327C5.50416 25.5486 5.51762 25.5634 5.5236 25.5865C5.52462 25.6045 5.52755 25.6146 5.52591 25.6338C5.54118 25.7584 5.56104 25.8738 5.57947 25.9973C5.58137 26.0154 5.5847 26.0255 5.58398 26.0424C5.58911 26.0843 5.59829 26.1194 5.60629 26.166C5.6349 26.3597 5.65371 26.5445 5.69661 26.7235C5.80633 27.1813 5.91078 27.6414 6.04757 28.0914C6.177 28.5172 6.33386 28.9357 6.49902 29.3492C6.65617 29.7428 6.82709 30.132 7.01499 30.5118C7.21477 30.9155 7.43581 31.3092 7.65808 31.7013C7.93225 32.1849 8.21707 32.6626 8.49799 33.1424C8.51773 33.1761 8.54324 33.2064 8.57158 33.2461C8.6105 33.2112 8.64189 33.1861 8.66983 33.1576C9.23126 32.5854 9.79214 32.0126 10.3542 31.441C10.3703 31.4245 10.3977 31.4192 10.4208 31.4083C10.466 31.5369 10.9529 39.507 10.9226 39.6471C10.7998 39.6256 10.6762 39.6035 10.5524 39.5822C9.4627 39.3949 8.37304 39.2075 7.28329 39.0207C6.1935 38.8338 5.10368 38.6471 4.01373 38.4612C3.56708 38.385 3.11997 38.3115 2.67334 38.2351C2.61882 38.2258 2.566 38.2066 2.48816 38.1854C2.53499 38.1363 2.55929 38.1052 2.58896 38.0806C3.01798 37.7248 3.44797 37.3702 3.87714 37.0146C4.02017 36.8961 4.16352 36.7778 4.30285 36.655C4.37835 36.5885 4.37686 36.5778 4.32684 36.4933C4.29456 36.4387 4.25842 36.3864 4.22264 36.334C3.52405 35.3107 2.89104 34.2482 2.32095 33.1484C1.92425 32.3831 1.56941 31.5989 1.27332 30.7886C1.2112 30.6186 1.1429 30.4509 1.08094 30.2726C1.00206 30.0012 0.919891 29.7392 0.836585 29.4776C0.833027 29.4664 0.818982 29.4586 0.810716 29.4399C0.799033 29.3958 0.786456 29.361 0.778475 29.3197C0.765068 29.2675 0.747068 29.2219 0.730449 29.1691C0.727771 29.1532 0.723711 29.1446 0.724217 29.1293C0.710952 29.0767 0.693121 29.0307 0.676681 28.9779C0.674244 28.9628 0.670417 28.9545 0.671134 28.9409C0.666321 28.9159 0.656963 28.8962 0.649031 28.8695C0.646562 28.8539 0.642667 28.8454 0.643437 28.8317C0.639332 28.8065 0.630562 28.7865 0.623197 28.7597C0.620709 28.7447 0.616814 28.7365 0.617507 28.723C0.612998 28.6976 0.603903 28.6776 0.596116 28.6489C0.592025 28.6238 0.586626 28.6075 0.58607 28.5864C0.582102 28.5629 0.573291 28.5441 0.565584 28.5175C0.562502 28.5006 0.558317 28.4914 0.559082 28.4776C0.555282 28.454 0.546533 28.435 0.539086 28.4086C0.536505 28.392 0.532621 28.3829 0.533297 28.3688C0.528946 28.3444 0.520034 28.3251 0.512531 28.2987C0.510028 28.2828 0.506115 28.2741 0.506848 28.2603C0.502871 28.2353 0.49425 28.2155 0.486667 28.1856C0.474714 28.1241 0.461721 28.0725 0.453645 28.015C0.448354 27.9817 0.438145 27.9544 0.429379 27.9195C0.426777 27.9025 0.422734 27.8931 0.424024 27.8792C0.420845 27.8545 0.412332 27.8345 0.405554 27.8058C0.401844 27.7807 0.396401 27.7643 0.396374 27.7433C0.393162 27.7189 0.384533 27.6989 0.377573 27.6702C0.373753 27.6449 0.368266 27.6283 0.368209 27.6077C0.36657 27.5897 0.359501 27.5758 0.353859 27.5522C0.350418 27.5304 0.345549 27.5184 0.345864 27.498C0.339724 27.4552 0.328401 27.4205 0.318999 27.378C0.317236 27.36 0.313553 27.35 0.315519 27.3337C0.310878 27.2922 0.300589 27.257 0.29229 27.214C0.290563 27.1963 0.286844 27.1865 0.288824 27.1711C0.285198 27.1372 0.275874 27.1088 0.268966 27.0719C0.26657 27.0469 0.261757 27.0304 0.262857 27.0076C0.258175 26.9653 0.247581 26.9292 0.239082 26.8858C0.237799 26.8692 0.234419 26.86 0.236766 26.8443C0.23202 26.8012 0.221547 26.7645 0.213415 26.721C0.212438 26.7055 0.209121 26.6968 0.21159 26.6805C0.205363 26.6201 0.19335 26.5674 0.183522 26.507C0.182297 26.4893 0.178889 26.4793 0.181524 26.4621C0.17608 26.4028 0.164594 26.3509 0.155358 26.2907C0.15404 26.2721 0.150472 26.2617 0.153051 26.244C0.148421 26.1841 0.137642 26.1314 0.129515 26.0714C0.129094 26.0543 0.126022 26.0446 0.129776 26.0264C0.137182 25.9911 0.140223 25.9641 0.137955 25.9376C0.117711 25.7005 0.097264 25.4634 0.0744981 25.2266C0.0722005 25.2027 0.0542265 25.1803 0.0462649 25.1492C0.0460328 25.1305 0.0430628 25.1198 0.0472287 25.1006C0.0532863 24.976 0.08039 24.8568 0.0201113 24.7376C0.0194467 24.7005 0.0155539 24.6733 0.0184654 24.6374C0.0156975 24.5019 0.00612484 24.3752 0 24.2372C0.00348272 23.7582 0.00363174 23.2906 0.00319712 22.823C0.00317677 22.8008 -0.00202198 22.7787 0.00257779 22.7489C0.0108993 22.614 0.011835 22.4868 0.0167477 22.3509C0.0195181 22.3235 0.018311 22.3047 0.0255737 22.28C0.039876 22.2478 0.0484728 22.2218 0.0511286 22.1952C0.0974603 21.7312 0.143416 21.2672 0.187831 20.803C0.190163 20.7786 0.178078 20.7529 0.177398 20.7202C0.181075 20.7012 0.180057 20.6898 0.188039 20.6737C0.222585 20.5141 0.248809 20.359 0.272583 20.2036C0.274857 20.1888 0.261856 20.1716 0.260553 20.149C0.264415 20.1322 0.263672 20.122 0.270904 20.1079C0.280307 20.0667 0.281734 20.0294 0.28778 19.9855C0.291516 19.9684 0.290634 19.958 0.298504 19.9425C0.340889 19.8131 0.382592 19.6898 0.367275 19.5507C0.371676 19.5331 0.371302 19.5222 0.378418 19.5085C0.386909 19.4776 0.387909 19.4496 0.393761 19.4147C0.398348 19.3969 0.398082 19.3859 0.405399 19.3722C0.414044 19.3415 0.415107 19.3136 0.420981 19.2789C0.425639 19.2613 0.425487 19.2504 0.432982 19.2367C0.442138 19.2055 0.443648 19.1772 0.449956 19.1426C0.45444 19.1263 0.454125 19.1162 0.461555 19.1029C0.470822 19.0706 0.472344 19.0414 0.478407 19.0061C0.482457 18.9903 0.481968 18.9805 0.488678 18.9686C0.496335 18.9459 0.49679 18.9253 0.502127 18.8979C0.506895 18.8802 0.506784 18.8693 0.515365 18.8537C0.564172 18.6972 0.605118 18.5456 0.643369 18.3934C0.648279 18.3738 0.639183 18.3507 0.642235 18.3211C0.648624 18.2997 0.649351 18.2866 0.658755 18.2686C0.702755 18.1536 0.754561 18.0471 0.744924 17.9198C0.750979 17.9023 0.751566 17.8912 0.761059 17.8761C0.838845 17.6471 0.907988 17.4224 0.975803 17.1972C0.979132 17.1862 0.970848 17.1716 0.974689 17.1511C0.986833 17.1173 0.99226 17.0912 1.00655 17.0608C1.03214 17.0147 1.05012 16.9733 1.06542 16.931C1.20709 16.5396 1.33942 16.1444 1.49213 15.7573C1.64483 15.3703 1.81867 14.9916 1.98106 14.6083C2.01198 14.5353 2.03273 14.458 2.06602 14.3767C2.08542 14.3404 2.09696 14.3102 2.11737 14.2777C2.15673 14.2023 2.1872 14.1293 2.22533 14.0493C2.26368 13.9757 2.29437 13.909 2.3331 13.8411C2.34576 13.8213 2.35037 13.8026 2.36219 13.7775C2.38265 13.7421 2.39591 13.7132 2.41807 13.6818C2.44976 13.6235 2.47254 13.5677 2.50305 13.5055C2.53938 13.4408 2.56798 13.3824 2.60532 13.3225C2.62874 13.2848 2.64342 13.2486 2.66588 13.2061C2.70231 13.1413 2.73098 13.0828 2.76847 13.0228C2.79149 12.9852 2.80568 12.9492 2.82793 12.9072C2.84629 12.8776 2.85659 12.8538 2.87582 12.8298C2.89922 12.7939 2.9137 12.7582 2.93514 12.716C2.9439 12.7033 2.94571 12.6972 2.95647 12.6913C3.01953 12.6172 3.09517 12.5544 3.0997 12.444C3.10792 12.4317 3.10945 12.4258 3.11999 12.42C3.18257 12.3456 3.25656 12.2816 3.2621 12.1718C3.27063 12.1592 3.27237 12.1531 3.28307 12.1474C3.35677 12.0558 3.42292 11.9648 3.48508 11.8712C3.49811 11.8516 3.49644 11.8222 3.50821 11.7916C3.51657 11.7803 3.51826 11.7747 3.52938 11.769C3.57969 11.7325 3.62057 11.696 3.68594 11.6377C3.69548 11.7116 3.70577 11.7531 3.70531 11.7946C3.70365 11.9426 3.69706 12.0907 3.69521 12.2387C3.69467 12.2821 3.70371 12.3257 3.70836 12.3691Z" fill="#01172E"/>
<path d="M31.3795 19.4819C31.5292 19.4862 31.6788 19.4905 31.8407 19.4971C31.834 19.6392 31.8 19.7702 31.7066 19.8854C31.6509 19.9541 31.6238 20.0455 31.5807 20.1249C31.473 20.3235 31.363 20.5208 31.2548 20.7191C31.0729 21.0523 30.8942 21.3872 30.7092 21.7187C30.6013 21.9122 30.4822 22.0994 30.3711 22.291C30.2781 22.4514 30.1909 22.615 30.098 22.7754C30.0574 22.8455 30.0097 22.9115 29.9644 22.9788C29.9141 23.0536 29.8608 23.1264 29.8125 23.2025C29.7497 23.3015 29.69 23.4025 29.63 23.5033C29.6048 23.5458 29.5776 23.5879 29.5591 23.6334C29.5066 23.7628 29.4645 23.8968 29.4065 24.0236C29.3259 24.1997 29.2398 24.3737 29.1469 24.5436C28.9689 24.8693 28.7816 25.1899 28.6033 25.5154C28.4207 25.8489 28.2467 26.1872 28.0639 26.5205C27.9554 26.7183 27.8349 26.9095 27.7236 27.1058C27.61 27.3061 27.5005 27.5087 27.3901 27.7108C27.2186 28.0246 27.049 28.3394 26.8762 28.6524C26.8305 28.7353 26.7724 28.8113 26.7259 28.8938C26.6218 29.0784 26.5224 29.2657 26.4193 29.4509C26.3166 29.6354 26.2302 29.8328 26.103 29.9988C25.9429 30.2076 25.8585 30.4493 25.7398 30.6764C25.5511 31.0373 25.3442 31.3887 25.1402 31.7414C25.0115 31.9639 24.873 32.1807 24.7413 32.4014C24.7184 32.4397 24.705 32.4843 24.6914 32.5273C24.6664 32.6064 24.6346 32.6784 24.5636 32.7301C24.5366 32.7498 24.515 32.7854 24.5047 32.8181C24.4265 33.0666 24.2847 33.2832 24.1623 33.5095C24.0548 33.7084 23.9507 33.9092 23.8386 34.1055C23.686 34.3724 23.5237 34.6337 23.3725 34.9014C23.286 35.0545 23.214 35.2157 23.1338 35.3725C23.1134 35.4124 23.0918 35.4539 23.0616 35.4861C22.996 35.556 22.9383 35.6248 22.9114 35.7231C22.8921 35.7938 22.8317 35.8521 22.7971 35.9198C22.6654 36.1778 22.5434 36.4409 22.4053 36.6953C22.2111 37.0532 22.0063 37.4053 21.8044 37.7591C21.7879 37.788 21.7595 37.8102 21.7366 37.8356C21.7268 37.8333 21.717 37.831 21.7073 37.8288C21.7032 37.7823 21.6957 37.7359 21.6955 37.6895C21.694 37.2087 21.6933 36.728 21.6932 36.2472C21.6928 33.4172 21.6926 30.5871 21.6923 27.7571C21.6923 27.5112 21.6924 27.5106 21.4506 27.4832C21.4058 27.4782 21.3601 27.48 21.3147 27.48C19.5057 27.4798 17.6967 27.479 15.8877 27.4808C15.707 27.4809 15.5261 27.5065 15.3458 27.5024C15.0159 27.495 14.6863 27.5131 14.3567 27.5028C14.2689 27.5001 14.1815 27.482 14.0812 27.4694C14.1314 27.3559 14.1728 27.2626 14.2145 27.1511C14.2241 27.1201 14.2332 27.1072 14.2513 27.0923C14.3362 27.006 14.3901 26.9109 14.4028 26.7952C14.4026 26.7946 14.4039 26.7942 14.413 26.7924C14.4936 26.7269 14.5301 26.646 14.5385 26.5505C14.5382 26.5495 14.5403 26.5489 14.5493 26.5472C14.6297 26.4818 14.6671 26.4014 14.6747 26.3057C14.6746 26.3047 14.6765 26.3041 14.6765 26.3041C14.7037 26.2765 14.7388 26.2532 14.7571 26.2206C15.0994 25.6128 15.4394 25.0037 15.7806 24.3953C16.0997 23.8263 16.4207 23.2585 16.7388 22.689C16.9442 22.3212 17.1446 21.9506 17.3495 21.5825C17.5875 21.1551 17.8288 20.7295 18.0672 20.3023C18.2635 19.9505 18.457 19.5972 18.6532 19.2453C18.8274 18.9328 19.0044 18.6219 19.1784 18.3093C19.3172 18.0602 19.4518 17.8088 19.5911 17.5601C19.8456 17.1056 20.1034 16.653 20.3574 16.1982C20.5009 15.9414 20.6385 15.6812 20.7805 15.4235C20.9532 15.1102 21.128 14.798 21.3012 14.4849C21.4591 14.1995 21.6147 13.9127 21.7737 13.628C22.1427 12.9675 22.5136 12.3082 22.8829 11.6479C23.115 11.2328 23.3457 10.8168 23.5769 10.4012C23.7619 10.0687 23.9466 9.73615 24.1321 9.40398C24.1404 9.38918 24.1548 9.3778 24.1721 9.35835C24.2388 9.40402 24.2679 9.45303 24.2668 9.53725C24.264 9.73442 24.2807 9.93179 24.2813 10.1291C24.2815 10.2042 24.2586 10.2793 24.2475 10.3546C24.2402 10.4035 24.2334 10.4527 24.2294 10.5019C24.2205 10.6144 24.2118 10.727 24.2065 10.8397C24.2046 10.8798 24.2146 10.9203 24.2161 10.9607C24.2198 11.0645 24.2351 11.1703 24.2212 11.2719C24.1989 11.4352 24.1901 11.5958 24.2242 11.7576C24.2252 11.762 24.2262 11.7666 24.2261 11.771C24.2203 11.9547 24.2097 12.1383 24.2094 12.3219C24.2091 12.565 24.1665 12.8099 24.2372 13.0508C24.2455 13.0792 24.2337 13.113 24.2342 13.1442C24.236 13.2662 24.239 13.3882 24.2413 13.5103C24.2419 13.5415 24.2427 13.5729 24.2407 13.604C24.2388 13.6355 24.2241 13.6692 24.2313 13.6979C24.2718 13.8603 24.2193 14.0228 24.233 14.1827C24.254 14.4272 24.2165 14.6697 24.2296 14.913C24.2479 15.2517 24.2152 15.5906 24.2309 15.929C24.2404 16.1321 24.2256 16.3344 24.2301 16.537C24.2347 16.7432 24.249 16.9491 24.252 17.1553C24.2533 17.2495 24.2317 17.344 24.2304 17.4384C24.2272 17.6833 24.2307 17.9282 24.2289 18.1731C24.2278 18.3166 24.2205 18.4601 24.2186 18.6036C24.2181 18.639 24.2278 18.6744 24.2327 18.7098C24.2407 18.7678 24.2513 18.8256 24.256 18.8838C24.2677 19.0279 24.2738 19.1726 24.2884 19.3164C24.2927 19.3594 24.3177 19.4003 24.3417 19.4464C24.3502 19.4507 24.3562 19.4525 24.3622 19.4643C24.4161 19.4844 24.464 19.4998 24.5118 19.4999C26.7522 19.5009 28.9926 19.5007 31.233 19.4997C31.2818 19.4996 31.3307 19.4881 31.3795 19.4819Z" fill="#01172E"/>
<path d="M38.4974 40.6937C38.4893 40.6922 38.4868 40.6803 38.4817 40.6688C38.4704 40.6497 38.4625 40.6465 38.4528 40.6476C38.4528 40.6476 38.4524 40.6475 38.4506 40.6385C38.424 40.6168 38.3991 40.604 38.3743 40.5912C38.3654 40.5891 38.3575 40.585 38.3449 40.5646C38.3136 40.5371 38.288 40.5241 38.2625 40.511C38.254 40.5093 38.2465 40.5054 38.2356 40.4846C38.2136 40.4205 38.1772 40.4008 38.1268 40.4033C38.1268 40.4033 38.1255 40.4035 38.1247 40.3961C38.0983 40.3522 38.0825 40.3654 38.0708 40.3993C38.0708 40.3993 38.0646 40.4057 38.0529 40.4086C38.0347 40.4191 38.0282 40.4266 38.0217 40.4341C38.0217 40.4341 38.0179 40.4317 38.01 40.4334C37.9353 40.4594 37.8719 40.4871 37.8594 40.5691C37.8594 40.5691 37.8584 40.5689 37.8516 40.5712C37.8364 40.5783 37.8312 40.5854 37.8292 40.5949C37.8292 40.5949 37.8272 40.5927 37.8216 40.5957C37.8077 40.6035 37.8026 40.6107 37.8007 40.6202C37.8007 40.6202 37.8003 40.6204 37.7906 40.6207C37.7334 40.6301 37.6995 40.6525 37.6973 40.7061C37.6973 40.7061 37.6963 40.7062 37.6895 40.7083C37.6743 40.7152 37.6693 40.7223 37.6675 40.7318C37.6675 40.7318 37.6656 40.7304 37.6597 40.7332C37.6455 40.7409 37.6404 40.748 37.6385 40.7573C37.6385 40.7573 37.6374 40.7568 37.6312 40.759C37.6166 40.7662 37.6118 40.7733 37.6103 40.7828C37.6103 40.7828 37.6103 40.7841 37.6003 40.785C37.5392 40.8084 37.484 40.8268 37.4785 40.8957C37.4785 40.8957 37.4764 40.894 37.4703 40.8968C37.4588 40.9067 37.4534 40.9139 37.448 40.921C37.448 40.921 37.4477 40.9217 37.4476 40.9221C37.3662 40.9233 37.3211 40.9726 37.289 41.0498C37.2882 41.0592 37.2874 41.0598 37.2771 41.0594C37.1906 41.0743 37.1412 41.1176 37.1241 41.1949C37.1241 41.1949 37.1209 41.1914 37.1157 41.195C37.105 41.2058 37.0996 41.2129 37.0943 41.2201C37.0943 41.2201 37.0929 41.2193 37.0837 41.2198C37.0137 41.2334 36.97 41.2643 36.96 41.3302C36.96 41.3302 36.9574 41.3274 36.9519 41.3306C36.9411 41.3411 36.936 41.3484 36.9308 41.3557C36.9308 41.3557 36.9298 41.3553 36.9205 41.3557C36.8632 41.3643 36.8296 41.3872 36.825 41.4399C36.825 41.4399 36.8249 41.4408 36.8246 41.4412C36.7142 41.4538 36.6466 41.5293 36.5753 41.6136C36.5067 41.6612 36.4393 41.6967 36.3788 41.7415C36.2384 41.8454 36.101 41.9533 35.9636 42.0611C35.94 42.0797 35.9227 42.1063 35.9016 42.1384C35.9006 42.1476 35.8998 42.148 35.8898 42.1476C35.8303 42.153 35.7967 42.176 35.7907 42.229C35.7907 42.229 35.7872 42.2255 35.7822 42.2286C35.7716 42.2388 35.7661 42.2457 35.7606 42.2527C35.7606 42.2527 35.7602 42.2533 35.7599 42.2535C35.7353 42.2671 35.711 42.2806 35.6853 42.303C35.684 42.3118 35.6831 42.3127 35.6729 42.3119C35.613 42.3154 35.5795 42.3384 35.5712 42.3904C35.5712 42.3904 35.5706 42.3908 35.5706 42.3911C35.4421 42.3969 35.3621 42.4956 35.2662 42.5582C34.8114 42.8552 34.3723 43.1775 33.9082 43.4586C33.2187 43.8761 32.5076 44.2557 31.7745 44.5937C31.1774 44.869 30.5685 45.1134 29.9485 45.3305C29.4485 45.5056 28.9421 45.6628 28.4261 45.7828C27.8004 45.9283 27.1725 46.0656 26.5422 46.1899C26.2368 46.2501 25.9246 46.279 25.6143 46.3106C25.1962 46.3532 24.7769 46.3839 24.3582 46.4212C23.8707 46.4648 23.3823 46.4767 22.8931 46.4732C22.8349 46.4728 22.7765 46.4813 22.709 46.4925C22.68 46.5 22.6603 46.5008 22.6309 46.4995C22.5198 46.481 22.4188 46.457 22.3166 46.4494C21.92 46.42 21.5229 46.3971 21.1262 46.3691C20.8782 46.3516 20.6301 46.3342 20.383 46.3077C20.1583 46.2835 19.9348 46.248 19.711 46.2159C19.4609 46.18 19.2112 46.1423 18.9534 46.1113C18.9338 46.1163 18.922 46.1153 18.902 46.1112C18.8463 46.0866 18.8009 46.057 18.7512 46.0451C18.2681 45.9286 17.7807 45.8283 17.3017 45.697C16.7962 45.5584 16.2986 45.391 15.7977 45.236C15.6988 45.2054 15.6003 45.1737 15.4906 45.145C15.4704 45.1452 15.4613 45.1429 15.4425 45.1278C15.3757 45.0985 15.3186 45.0819 15.2615 45.0653C15.2526 45.0629 15.2437 45.0604 15.2253 45.045C15.1798 45.0225 15.144 45.0129 15.1081 45.0032C15.1081 45.0032 15.0967 45.0015 15.0919 44.9983C15.0561 44.9713 15.0284 44.9393 14.9935 44.9252C14.4017 44.6855 13.8225 44.4185 13.2527 44.1307C13.2133 44.1108 13.1683 44.1018 13.1148 44.0903C13.0947 44.0945 13.0866 44.0926 13.0732 44.0732C13.005 43.9942 12.9329 43.9508 12.8396 43.9524C12.8303 43.9495 12.8211 43.9467 12.8019 43.9338C12.7832 43.9215 12.7743 43.9193 12.7655 43.9172C12.7655 43.9172 12.7546 43.9145 12.747 43.9052C12.7325 43.8891 12.7243 43.8868 12.7148 43.8892C12.7148 43.8892 12.7177 43.8856 12.7121 43.8802C12.6913 43.8698 12.6761 43.8648 12.6609 43.8598C12.6471 43.8534 12.6333 43.8471 12.6096 43.8293C12.5905 43.8153 12.5811 43.8127 12.5718 43.8101C12.5524 43.8005 12.533 43.7909 12.504 43.77C12.486 43.7564 12.4776 43.7541 12.4691 43.7518C12.4591 43.7491 12.4492 43.7464 12.4315 43.7437C12.4238 43.7436 12.4217 43.733 12.4156 43.7212C12.395 43.7043 12.3805 43.6994 12.3661 43.6944C12.3661 43.6944 12.3645 43.6951 12.3619 43.6854C12.3327 43.6647 12.3061 43.6538 12.2795 43.6428C12.2795 43.6428 12.267 43.6394 12.259 43.6302C12.2447 43.6145 12.2371 43.6121 12.2283 43.6138C12.2283 43.6138 12.2274 43.614 12.2249 43.6044C12.1952 43.5842 12.168 43.5735 12.1407 43.5628C12.1407 43.5628 12.1295 43.5602 12.1217 43.5509C12.107 43.5349 12.0989 43.5326 12.0895 43.5348C12.0895 43.5348 12.092 43.5317 12.0864 43.5268C12.0711 43.519 12.0613 43.5163 12.0516 43.5135C12.0516 43.5135 12.0433 43.5112 12.0381 43.4991C12.0067 43.4757 11.9805 43.4645 11.9543 43.4533C11.9543 43.4533 11.9552 43.4511 11.9506 43.4449C11.9317 43.4334 11.9173 43.4281 11.903 43.4228C11.903 43.4228 11.9015 43.4234 11.8991 43.4138C11.8707 43.3931 11.8446 43.3818 11.8184 43.3706C11.8184 43.3706 11.8196 43.3686 11.8169 43.3605C11.7882 43.3406 11.7622 43.3289 11.7362 43.3171C11.7362 43.3171 11.7384 43.314 11.7337 43.3084C11.7147 43.2971 11.7004 43.2916 11.6861 43.286C11.6861 43.286 11.6844 43.2867 11.6806 43.2796C11.6679 43.2695 11.6591 43.2665 11.6503 43.2635C11.6503 43.2635 11.6394 43.2598 11.6324 43.2502C11.6192 43.2339 11.6116 43.2312 11.6025 43.2324C11.5939 43.2313 11.5863 43.228 11.5719 43.21C11.5492 43.1917 11.5341 43.186 11.5191 43.1803C11.5191 43.1803 11.5207 43.178 11.5162 43.1721C11.4976 43.1605 11.4834 43.1548 11.4693 43.1492C11.4603 43.1477 11.4524 43.1441 11.438 43.1256C11.4163 43.1068 11.402 43.1007 11.3877 43.0946C11.3877 43.0946 11.3859 43.0953 11.3826 43.0882C11.3709 43.0784 11.3625 43.0756 11.3541 43.0727C11.3541 43.0727 11.3569 43.0697 11.3521 43.0642C11.3328 43.0531 11.3183 43.0475 11.3038 43.0419C11.3038 43.0419 11.303 43.0422 11.3007 43.033C11.272 43.0124 11.2458 43.0011 11.2196 42.9898C11.2196 42.9898 11.2215 42.9875 11.2184 42.9794C11.1884 42.9598 11.1614 42.9483 11.1344 42.9369C11.1211 42.9305 11.1078 42.9242 11.0877 42.9032C11.0553 42.8763 11.0296 42.8641 11.0039 42.8518C11.0039 42.8518 11.0037 42.8515 11.0017 42.8426C10.9742 42.8213 10.9486 42.8089 10.9231 42.7965C10.9141 42.7951 10.9064 42.7913 10.8945 42.7703C10.8629 42.7433 10.8367 42.731 10.8104 42.7186C10.8104 42.7186 10.8105 42.7179 10.8103 42.7182C10.7945 42.6288 10.7135 42.612 10.6418 42.5719C10.6274 42.5525 10.6215 42.5365 10.6114 42.5085C10.6485 42.5085 10.6771 42.5059 10.705 42.5089C10.8716 42.5267 11.0381 42.5457 11.2126 42.558C11.2411 42.5535 11.2616 42.5554 11.2947 42.5674C11.3326 42.5776 11.3581 42.5777 11.3835 42.5777C11.4126 42.5803 11.4416 42.5829 11.4831 42.5945C11.5129 42.6028 11.5302 42.6021 11.5475 42.6013C11.569 42.6028 11.5904 42.6043 11.6222 42.6027C11.6366 42.6023 11.6406 42.605 11.6515 42.6182C11.6757 42.6294 11.6931 42.6302 11.7212 42.6309C11.7533 42.6294 11.7746 42.6279 11.7959 42.6265C11.8002 42.629 11.8045 42.6315 11.8193 42.6429C11.8298 42.6519 11.8423 42.656 11.8423 42.656C11.8423 42.656 11.8552 42.6532 11.8663 42.6538C11.9939 42.6774 12.1106 42.7003 12.2303 42.731C12.267 42.7713 12.301 42.7728 12.3449 42.7401C12.3665 42.7429 12.3786 42.7458 12.3937 42.7565C12.4301 42.7994 12.4643 42.7991 12.5095 42.7664C12.54 42.7706 12.5603 42.7748 12.583 42.7861C12.611 42.7937 12.6365 42.7942 12.6724 42.795C12.7029 42.7998 12.723 42.8042 12.7473 42.8165C12.8108 42.8442 12.8659 42.8962 12.9436 42.8479C12.9653 42.851 12.9776 42.8543 12.9923 42.8657C13.0284 42.9093 13.0625 42.9113 13.1067 42.8751C13.1285 42.8779 13.1408 42.8809 13.1566 42.8929C13.3931 42.9473 13.6258 42.994 13.8592 43.0372C13.8952 43.0439 13.9327 43.0319 13.9388 42.9836C13.9411 42.9847 13.9362 42.9835 13.9436 42.9759C13.9411 42.7806 13.9314 42.5929 13.9205 42.4053C13.9201 42.399 13.9081 42.3933 13.9002 42.3777C13.8986 42.3489 13.8983 42.3297 13.9028 42.3003C13.9084 42.1958 13.9119 42.1013 13.9083 42.0072C13.9073 41.9793 13.8862 41.9523 13.8731 41.9138C13.867 41.8741 13.862 41.8454 13.857 41.8167C13.8564 41.7797 13.8559 41.7426 13.8566 41.6838C13.858 41.6233 13.8583 41.5846 13.864 41.5396C13.8629 41.4995 13.8564 41.4655 13.8478 41.4237C13.8456 41.4051 13.8455 41.3943 13.85 41.3754C13.8485 41.3264 13.8425 41.2854 13.8346 41.2347C13.8323 41.2051 13.832 41.1852 13.8372 41.1582C13.8598 41.1039 13.866 41.0588 13.816 41.0173C13.8101 41.0076 13.807 41.0043 13.8038 41.0009C13.8029 40.9549 13.8019 40.9089 13.8019 40.8411C13.8035 40.7894 13.804 40.7595 13.8102 40.722C13.8317 40.6596 13.8443 40.6053 13.7895 40.5547C13.7836 40.545 13.7805 40.5415 13.7774 40.5381C13.7769 40.492 13.7764 40.4459 13.7776 40.3819C13.7808 40.3588 13.7822 40.3538 13.7886 40.3393C13.8104 40.2235 13.8072 40.1192 13.7597 40.0099C13.7537 39.9888 13.7495 39.9769 13.7454 39.9651C13.7454 39.9651 13.7504 39.9663 13.7587 39.9579C13.77 39.9184 13.7769 39.8871 13.7751 39.8562C13.7657 39.6902 13.7569 39.5241 13.7425 39.3585C13.7324 39.2432 13.7136 39.1287 13.6967 39.0038C13.6947 38.9737 13.6945 38.9534 13.7001 38.9264C13.724 38.8734 13.729 38.8293 13.6847 38.7811C13.6766 38.7334 13.6707 38.6966 13.6649 38.6599C13.6662 38.6553 13.6676 38.6507 13.6773 38.6301C13.6856 38.471 13.6856 38.3279 13.6856 38.18C13.7245 38.1763 13.7506 38.1738 13.783 38.1738C13.7976 38.1803 13.8041 38.1863 13.8105 38.2033C13.8375 38.2251 13.8629 38.2377 13.8885 38.2507C13.8888 38.2509 13.8894 38.2512 13.8912 38.2601C13.9185 38.2809 13.944 38.2929 13.9701 38.3048C13.9708 38.3048 13.9711 38.3061 13.9728 38.315C14.0001 38.3355 14.0257 38.3472 14.0521 38.3588C14.0528 38.3587 14.0532 38.3601 14.0549 38.369C14.0824 38.3894 14.1081 38.401 14.1344 38.4125C14.1349 38.4126 14.1355 38.4136 14.1372 38.4226C14.1652 38.4432 14.1914 38.4547 14.2258 38.4686C14.2451 38.4721 14.2563 38.4732 14.2674 38.4742C14.2674 38.4742 14.2705 38.4813 14.2778 38.4902C14.3061 38.5083 14.3272 38.5175 14.3484 38.5268C14.3484 38.5268 14.3492 38.5245 14.3479 38.5322C14.3465 38.5398 14.3508 38.5526 14.3536 38.5617C14.3839 38.5803 14.4114 38.5899 14.4389 38.5996C14.4527 38.6058 14.4665 38.6121 14.486 38.6337C14.5237 38.6624 14.5557 38.6757 14.5878 38.689C14.5976 38.6917 14.6075 38.6944 14.6291 38.7065C14.6516 38.7188 14.6625 38.7217 14.6734 38.7246C14.6734 38.7246 14.6773 38.7318 14.6845 38.7392C14.701 38.7487 14.7104 38.7509 14.7197 38.7531C14.7197 38.7531 14.7205 38.755 14.7255 38.763C14.7624 38.7858 14.7944 38.8005 14.8264 38.8151C14.838 38.8237 14.8495 38.8322 14.8724 38.8493C14.8939 38.8601 14.9041 38.8624 14.9144 38.8647C14.9144 38.8647 14.9194 38.8717 14.9276 38.8793C14.9581 38.9033 14.9804 38.9196 15.0053 38.9443C15.034 38.9636 15.0599 38.9744 15.0933 38.9875C15.1137 38.9985 15.1265 39.0073 15.1421 39.0247C15.1717 39.0434 15.1986 39.0533 15.2347 39.0661C15.3616 39.1316 15.4792 39.1942 15.5987 39.2649C15.702 39.3545 15.8068 39.4284 15.954 39.4307C15.9966 39.4495 16.03 39.4662 16.0659 39.4913C16.1129 39.5462 16.1628 39.574 16.2336 39.5487C16.2385 39.5516 16.2487 39.5467 16.2487 39.5467C16.2487 39.5467 16.2533 39.5529 16.2621 39.5602C16.3198 39.5935 16.3685 39.6195 16.4204 39.654C16.4575 39.6729 16.4914 39.6831 16.534 39.6953C16.5642 39.7075 16.5857 39.7179 16.6103 39.737C16.6553 39.7944 16.71 39.8073 16.7807 39.8035C16.838 39.8256 16.8858 39.8455 16.9373 39.8734C16.9622 39.8852 16.9834 39.889 17.0144 39.8946C17.085 39.9211 17.146 39.9459 17.21 39.9795C17.2546 40.0281 17.3019 40.0456 17.3685 40.0292C17.4206 40.0477 17.4631 40.0646 17.5081 40.0895C17.5484 40.1305 17.5874 40.1589 17.6502 40.1301C17.6898 40.1424 17.7199 40.1535 17.7535 40.1733C17.8056 40.1944 17.8541 40.2069 17.9114 40.2207C17.9363 40.2292 17.9525 40.2364 17.9714 40.2523C18.0097 40.2791 18.0435 40.3029 18.0811 40.3144C18.3015 40.3817 18.5213 40.4514 18.7439 40.5107C19.2547 40.6469 19.7685 40.771 20.2927 40.8456C20.7213 40.9067 21.1501 40.967 21.5796 41.0213C21.6518 41.0304 21.7281 41.0075 21.812 40.9982C21.8342 40.999 21.8468 41.0009 21.8633 41.0124C21.9695 41.0631 22.1593 41.0646 22.2779 41.024C22.4724 41.0292 22.6541 41.0355 22.8417 41.0497C23.0076 41.0613 23.1675 41.0653 23.3276 41.0672C23.3371 41.0673 23.3468 41.0502 23.369 41.0392C23.5635 41.0339 23.7455 41.0307 23.9361 41.0345C23.9894 41.0453 24.0345 41.0552 24.0787 41.052C24.4213 41.0276 24.765 41.0119 25.1058 40.9718C25.5411 40.9205 25.9767 40.8631 26.4071 40.7818C26.8111 40.7056 27.2116 40.6057 27.6081 40.4961C27.9306 40.407 28.2479 40.2963 28.5623 40.1808C29.0639 39.9965 29.5596 39.7969 30.0342 39.549C30.255 39.4337 30.4773 39.3211 30.6957 39.2014C30.9058 39.0862 31.1135 38.9663 31.3192 38.8434C31.5796 38.6878 31.8386 38.5298 32.095 38.3679C32.474 38.1285 32.8508 37.8855 33.2266 37.6412C33.2608 37.619 33.2814 37.5758 33.3115 37.5385C33.3148 37.5347 33.3241 37.531 33.3333 37.5331C33.3583 37.5194 33.374 37.5035 33.3931 37.4839C33.3965 37.4801 33.4059 37.4764 33.4151 37.4784C33.4395 37.4642 33.4546 37.448 33.4733 37.4261C33.4827 37.4134 33.4899 37.4083 33.5068 37.4045C33.567 37.3679 33.5543 37.3447 33.5001 37.3295C33.4999 37.3292 33.4992 37.3287 33.4958 37.3223C33.4837 37.3122 33.475 37.3084 33.4592 37.3024C33.4425 37.2993 33.4329 37.2984 33.4233 37.2976C33.4233 37.2976 33.4193 37.288 33.4161 37.2757C33.4001 37.2567 33.3873 37.25 33.3664 37.2414C33.3528 37.24 33.3473 37.2405 33.3418 37.2409C33.3418 37.2409 33.3361 37.2322 33.3288 37.2242C33.3129 37.2141 33.3043 37.2121 33.2958 37.2101C33.2958 37.2101 33.2949 37.2066 33.2933 37.2005C33.2917 37.1944 33.286 37.1834 33.2834 37.178C33.275 37.1659 33.2678 37.1628 33.2583 37.1634C33.2575 37.1636 33.2576 37.1619 33.2553 37.1534C33.2283 37.1327 33.2036 37.1206 33.1702 37.1059C33.15 37.1011 33.1384 37.0987 33.1268 37.0964C33.1246 37.0883 33.1195 37.0826 33.1027 37.0711C33.0788 37.0566 33.0638 37.0506 33.0488 37.0446C33.0488 37.0446 33.0453 37.0484 33.0441 37.0392C33.0338 37.0278 33.0248 37.0256 33.0158 37.0234C33.0158 37.0234 33.0127 37.0277 33.0146 37.0195C33.0165 37.0113 33.0118 37.0002 33.0079 36.994C32.9948 36.9847 32.9858 36.9815 32.9697 36.9761C32.9529 36.9725 32.9433 36.9712 32.9337 36.9699C32.9337 36.9699 32.9306 36.9728 32.9323 36.9652C32.9341 36.9577 32.9299 36.9465 32.9261 36.94C32.9134 36.9301 32.9044 36.9266 32.8907 36.9216C32.886 36.9201 32.879 36.9133 32.8766 36.9045C32.8258 36.8353 32.768 36.7902 32.6868 36.7826C32.6859 36.7828 32.6857 36.7811 32.6822 36.7749C32.6701 36.7651 32.6615 36.7615 32.6457 36.7558C32.6289 36.7524 32.6192 36.7512 32.6095 36.7501C32.6095 36.7501 32.6046 36.7549 32.607 36.7463C32.6093 36.7378 32.6043 36.7269 32.6012 36.7208C32.5899 36.7113 32.5817 36.7079 32.5743 36.7029C32.5751 36.7012 32.5741 36.7047 32.5707 36.6977C32.5537 36.6846 32.54 36.6786 32.525 36.6729C32.5236 36.6732 32.523 36.6705 32.5199 36.6643C32.5084 36.6549 32.5 36.6517 32.4844 36.6462C32.4675 36.6424 32.4578 36.641 32.4481 36.6395C32.4481 36.6395 32.4438 36.6437 32.4456 36.6352C32.4473 36.6266 32.4417 36.6157 32.4386 36.6098C32.429 36.5967 32.4209 36.5936 32.4122 36.5935C32.4131 36.5923 32.4116 36.5947 32.4081 36.5866C32.3796 36.5663 32.3546 36.5541 32.3306 36.5406C32.3316 36.5391 32.3291 36.5415 32.3253 36.5345C32.3073 36.522 32.293 36.5165 32.2779 36.5113C32.2771 36.5115 32.2768 36.5098 32.2731 36.502C32.2447 36.4821 32.2199 36.47 32.1953 36.4574C32.1955 36.4569 32.1945 36.4576 32.1911 36.4508C32.1742 36.4381 32.1607 36.4323 32.1399 36.4252C32.1277 36.4245 32.1228 36.4252 32.1178 36.4258C32.1178 36.4258 32.1161 36.4271 32.1169 36.4204C32.1176 36.4137 32.1136 36.403 32.1098 36.396C32.0917 36.3838 32.0773 36.3787 32.063 36.3736C32.063 36.3736 32.0609 36.3741 32.0586 36.3667C32.0505 36.3513 32.0426 36.3475 32.0326 36.3478C32.0324 36.3476 32.0321 36.3473 32.0289 36.3412C32.0176 36.3314 32.0094 36.3278 32.0024 36.3227C32.0035 36.3211 32.0022 36.3248 31.9989 36.3175C31.9815 36.3042 31.9675 36.2982 31.9526 36.2924C31.9517 36.2927 31.9513 36.2908 31.9483 36.2848C31.9387 36.2713 31.9306 36.268 31.9223 36.2674C31.9239 36.2659 31.9208 36.2688 31.9187 36.2598C31.8903 36.2383 31.864 36.2259 31.8301 36.2113C31.8125 36.2076 31.8023 36.2062 31.7922 36.2047C31.7889 36.1957 31.7828 36.1894 31.7679 36.1788C31.7618 36.172 31.7583 36.1615 31.7549 36.1542C31.7373 36.1408 31.7231 36.1346 31.7026 36.1264C31.688 36.1208 31.6814 36.1152 31.6732 36.1002C31.6557 36.0867 31.6416 36.0804 31.6265 36.0745C31.6255 36.0747 31.6251 36.0727 31.6222 36.0666C31.6128 36.0531 31.6047 36.0498 31.5956 36.0493C31.5963 36.0481 31.5956 36.0508 31.5918 36.0438C31.5739 36.0312 31.5598 36.0255 31.5448 36.0201C31.5439 36.0203 31.5435 36.0184 31.5405 36.0123C31.5311 35.9988 31.523 35.9955 31.514 35.9949C31.5148 35.9937 31.5139 35.9964 31.5105 35.9894C31.4935 35.9763 31.48 35.9701 31.4592 35.9626C31.4471 35.962 31.4423 35.9628 31.4375 35.9635C31.4375 35.9635 31.4359 35.9647 31.4366 35.9582C31.4374 35.9517 31.4332 35.9413 31.4296 35.9332C31.401 35.9124 31.376 35.8997 31.3517 35.886C31.3525 35.8851 31.3507 35.8867 31.3484 35.8779C31.3206 35.8571 31.295 35.845 31.27 35.832C31.2706 35.831 31.2689 35.8326 31.2635 35.8202C31.2311 35.7832 31.2042 35.7587 31.1773 35.7342C31.197 35.715 31.2167 35.6958 31.2559 35.6789C31.3192 35.6712 31.3646 35.6656 31.4066 35.6504C31.8369 35.4952 32.2673 35.3401 32.6965 35.1817C33.1978 34.9967 33.6981 34.8085 34.1987 34.6215C34.5933 34.474 34.9881 34.3272 35.3817 34.1772C35.4296 34.1589 35.4707 34.1225 35.5207 34.091C35.5266 34.0875 35.5399 34.0853 35.5503 34.0873C35.6257 34.081 35.6941 34.0801 35.7395 34.0072C35.7635 33.9971 35.7802 33.9919 35.8074 33.9903C35.943 33.9663 36.0695 33.9423 36.1751 33.8446C36.1995 33.8348 36.2165 33.8298 36.2431 33.8283C36.3046 33.8271 36.3585 33.8271 36.394 33.7645C36.4455 33.7445 36.4886 33.7297 36.5415 33.7184C36.6043 33.7186 36.6588 33.7181 36.6917 33.6531C36.7161 33.6436 36.7329 33.6387 36.7603 33.6374C36.7842 33.6403 36.7987 33.6428 36.8108 33.6384C37.0718 33.5434 37.3327 33.4481 37.5928 33.3508C37.6106 33.3441 37.6221 33.3205 37.6423 33.3013C37.6481 33.2978 37.6615 33.2959 37.6723 33.2981C37.8218 33.2698 37.9628 33.2452 38.0806 33.1374C38.138 33.1152 38.1871 33.0984 38.2418 33.0818C38.2558 33.08 38.2608 33.0748 38.2624 33.0664C38.2731 33.0615 38.2839 33.0565 38.3093 33.0524C38.3329 33.0526 38.3393 33.0482 38.3511 33.0357C38.3789 33.0189 38.3988 33.0065 38.4187 32.994C38.4187 32.994 38.4269 32.9953 38.4398 32.9927C38.4794 32.9834 38.5062 32.9766 38.5433 32.9715C38.6177 32.9637 38.6864 32.9649 38.7313 32.8942C38.7422 32.8901 38.7469 32.8894 38.7618 32.8904C38.8358 32.8811 38.9062 32.8844 38.9423 32.8136C38.9423 32.8136 38.9417 32.8069 38.95 32.8053C38.9961 32.786 39.034 32.7683 39.0718 32.7505C39.0718 32.7505 39.0802 32.752 39.0924 32.75C39.1205 32.7389 39.1364 32.7298 39.1523 32.7206C39.1523 32.7206 39.1607 32.722 39.1635 32.7188C39.1989 32.708 39.2316 32.7004 39.2831 32.6934C39.3277 32.6816 39.3534 32.6692 39.3791 32.6568C39.3906 32.654 39.402 32.6513 39.4222 32.65C39.4423 32.8131 39.4527 32.9748 39.4659 33.1362C39.4679 33.1616 39.4823 33.186 39.4996 33.2163C39.511 33.2491 39.5137 33.2764 39.5154 33.314C39.507 33.3678 39.4906 33.412 39.4938 33.4548C39.5172 33.766 39.5449 34.0768 39.5705 34.3878C39.5742 34.4329 39.5796 34.4792 39.5738 34.5236C39.5483 34.7185 39.602 34.9061 39.6209 35.0969C39.6329 35.2184 39.6361 35.3407 39.6431 35.4626C39.6501 35.584 39.6579 35.7053 39.6633 35.8267C39.6671 35.9117 39.6674 35.9969 39.6696 36.0819C39.6702 36.1041 39.6659 36.1292 39.6747 36.1478C39.7348 36.275 39.73 36.4111 39.7391 36.5466C39.7532 36.7585 39.7775 36.9698 39.7964 37.1814C39.8132 37.3706 39.8283 37.5599 39.8445 37.7491C39.8693 38.0374 39.8953 38.3257 39.9188 38.6141C39.932 38.7764 39.9398 38.9392 39.953 39.1015C39.9767 39.3944 40.0018 39.6873 40.0281 39.98C40.0365 40.0732 40.0507 40.1659 40.071 40.2642C40.0826 40.2886 40.0854 40.3075 40.0873 40.3361C40.0784 40.3889 40.0604 40.4329 40.0638 40.4752C40.0858 40.754 40.1148 41.0322 40.1367 41.311C40.1485 41.4627 40.1507 41.6152 40.1579 41.7826C40.1203 41.7669 40.091 41.7599 40.0676 41.744C39.9555 41.6679 39.846 41.588 39.7334 41.5125C39.6929 41.4853 39.6466 41.4667 39.5929 41.4461C39.5828 41.448 39.5735 41.4449 39.5704 41.4411C39.5581 41.4175 39.5542 41.3905 39.5388 41.3793C39.3826 41.2657 39.2247 41.1543 39.0665 41.0436C39.0526 41.0339 39.0326 41.033 39.0055 41.0291C38.9956 41.0301 38.9958 41.0294 38.9941 41.0204C38.9667 40.9992 38.9411 40.9868 38.9155 40.9745C38.9155 40.9745 38.9148 40.9744 38.9131 40.9652C38.8861 40.9436 38.8608 40.9313 38.8355 40.919C38.8355 40.919 38.8338 40.9194 38.8325 40.9092C38.81 40.8528 38.7734 40.8344 38.7236 40.8401C38.7236 40.8401 38.7237 40.8389 38.7217 40.8302C38.6941 40.8091 38.6686 40.7968 38.643 40.7845C38.643 40.7845 38.6425 40.7842 38.6406 40.7751C38.6134 40.7534 38.5881 40.7407 38.5628 40.7281C38.5437 40.7171 38.5247 40.7061 38.4974 40.6937Z" fill="#01172E"/>
</svg>
