<svg width="14" height="15" viewBox="0 0 14 15" fill="none" xmlns="http://www.w3.org/2000/svg">
<g clip-path="url(#clip0_21_10809)">
<path fill-rule="evenodd" clip-rule="evenodd" d="M1.3125 6.625C1.3125 3.48387 3.85887 0.9375 7 0.9375C10.1411 0.9375 12.6875 3.48387 12.6875 6.625C12.6875 8.66299 11.6359 10.3773 10.4925 11.6425C9.3455 12.9116 8.06391 13.7763 7.50651 14.1235C7.19384 14.3181 6.80616 14.3181 6.49349 14.1235C5.93609 13.7763 4.6545 12.9116 3.50752 11.6425C2.36413 10.3773 1.3125 8.66299 1.3125 6.625ZM7 8.95833C8.28867 8.95833 9.33333 7.91367 9.33333 6.625C9.33333 5.33633 8.28867 4.29167 7 4.29167C5.71133 4.29167 4.66667 5.33633 4.66667 6.625C4.66667 7.91367 5.71133 8.95833 7 8.95833Z" fill="#01172E" fill-opacity="0.7"/>
</g>
<defs>
<clipPath id="clip0_21_10809">
<rect width="14" height="14" fill="white" transform="translate(0 0.5)"/>
</clipPath>
</defs>
</svg>
